/* XPM */
static char *b4139a12a80748a2971612528a144852TcMkPCn6LBt0RGxL[] = {
/* columns rows colors chars-per-pixel */
"60 60 4 1 ",
"  c None",
". c black",
"X c #ED1C24",
"o c #FFC20E",
/* pixels */
"                            ................                ",
"                            ................                ",
"                            ................                ",
"                            ................                ",
"                        ....oooooooooooooooo....            ",
"                        ....oooooooooooooooo....            ",
"                        ....oooooooooooooooo....            ",
"                        ....oooooooooooooooo....            ",
"                    ....oooooooooooooooooooooooo....        ",
"                    ....oooooooooooooooooooooooo....        ",
"                    ....oooooooooooooooooooooooo....        ",
"                    ....oooooooooooooooooooooooo....        ",
"                    ....oooooooooooooooo....oooo............",
"                    ....oooooooooooooooo....oooo............",
"                    ....oooooooooooooooo....oooo............",
"                    ....oooooooooooooooo....oooo............",
"                    ....ooooooooooooooooooooooooXXXXXXXX....",
"                    ....ooooooooooooooooooooooooXXXXXXXX....",
"                    ....ooooooooooooooooooooooooXXXXXXXX....",
"                    ....ooooooooooooooooooooooooXXXXXXXX....",
"                    ........ooooooooooooooooooooXXXX........",
"                    ........ooooooooooooooooooooXXXX........",
"                    ........ooooooooooooooooooooXXXX........",
"                    ........ooooooooooooooooooooXXXX........",
"........                ........oooooooooooo............    ",
"........                ........oooooooooooo............    ",
"........                ........oooooooooooo............    ",
"........                ........oooooooooooo............    ",
"....oooo........            ....oooooooooooo....            ",
"....oooo........            ....oooooooooooo....            ",
"....oooo........            ....oooooooooooo....            ",
"....oooo........            ....oooooooooooo....            ",
"....oooooooooooo............oooooooooooooooo....            ",
"....oooooooooooo............oooooooooooooooo....            ",
"....oooooooooooo............oooooooooooooooo....            ",
"....oooooooooooo............oooooooooooooooo....            ",
"....oooooooooooooooooooooooooooo....oooooooooooo....        ",
"....oooooooooooooooooooooooooooo....oooooooooooo....        ",
"....oooooooooooooooooooooooooooo....oooooooooooo....        ",
"....oooooooooooooooooooooooooooo....oooooooooooo....        ",
"....oooooooo....oooooooooooooooooooo....oooooooo....        ",
"....oooooooo....oooooooooooooooooooo....oooooooo....        ",
"....oooooooo....oooooooooooooooooooo....oooooooo....        ",
"....oooooooo....oooooooooooooooooooo....oooooooo....        ",
"    ....oooooooo....oooooooooooo....oooooooooooo....        ",
"    ....oooooooo....oooooooooooo....oooooooooooo....        ",
"    ....oooooooo....oooooooooooo....oooooooooooo....        ",
"    ....oooooooo....oooooooooooo....oooooooooooo....        ",
"    ........oooooooo............oooooooooooo....            ",
"    ........oooooooo............oooooooooooo....            ",
"    ........oooooooo............oooooooooooo....            ",
"    ........oooooooo............oooooooooooo....            ",
"        ........oooooooooooooooooooo........                ",
"        ........oooooooooooooooooooo........                ",
"        ........oooooooooooooooooooo........                ",
"        ........oooooooooooooooooooo........                ",
"                ........................                    ",
"                ........................                    ",
"                ........................                    ",
"                ........................                    "
};
