/* XPM */
static char *edb79946670c4579c79cee1d01ef8cd61bNd5DstAeiVheWU[] = {
/* columns rows colors chars-per-pixel */
"45 45 4 1 ",
"  c None",
". c black",
"X c #ED1C24",
"o c #FFC20E",
/* pixels */
"                     ............            ",
"                     ............            ",
"                     ............            ",
"                  ...oooooooooooo...         ",
"                  ...oooooooooooo...         ",
"                  ...oooooooooooo...         ",
"               ...oooooooooooooooooo...      ",
"               ...oooooooooooooooooo...      ",
"               ...oooooooooooooooooo...      ",
"               ...oooooooooooo...ooo.........",
"               ...oooooooooooo...ooo.........",
"               ...oooooooooooo...ooo.........",
"               ...ooooooooooooooooooXXXXXX...",
"               ...ooooooooooooooooooXXXXXX...",
"               ...ooooooooooooooooooXXXXXX...",
"               ......oooooooooooooooXXX......",
"               ......oooooooooooooooXXX......",
"               ......oooooooooooooooXXX......",
"......            ......ooooooooo.........   ",
"......            ......ooooooooo.........   ",
"......            ......ooooooooo.........   ",
"...ooo......         ...ooooooooo...         ",
"...ooo......         ...ooooooooo...         ",
"...ooo......         ...ooooooooo...         ",
"...ooooooooo.........oooooooooooo...         ",
"...ooooooooo.........oooooooooooo...         ",
"...ooooooooo.........oooooooooooo...         ",
"...ooooooooooooooooooooo...ooooooooo...      ",
"...ooooooooooooooooooooo...ooooooooo...      ",
"...ooooooooooooooooooooo...ooooooooo...      ",
"...oooooo...ooooooooooooooo...oooooo...      ",
"...oooooo...ooooooooooooooo...oooooo...      ",
"...oooooo...ooooooooooooooo...oooooo...      ",
"   ...oooooo...ooooooooo...ooooooooo...      ",
"   ...oooooo...ooooooooo...ooooooooo...      ",
"   ...oooooo...ooooooooo...ooooooooo...      ",
"   ......oooooo.........ooooooooo...         ",
"   ......oooooo.........ooooooooo...         ",
"   ......oooooo.........ooooooooo...         ",
"      ......ooooooooooooooo......            ",
"      ......ooooooooooooooo......            ",
"      ......ooooooooooooooo......            ",
"            ..................               ",
"            ..................               ",
"            ..................               "
};
