/* XPM */
static char *result[] = {
/* columns rows colors chars-per-pixel */
"60 60 16 1 ",
"  c black",
". c #762408",
"X c #7E2E0F",
"o c #9E2D1B",
"O c #8D3411",
"+ c #885400",
"@ c #B77100",
"# c #A46422",
"$ c #BC6E27",
"% c #D1AE09",
"& c #F58E31",
"* c #EDD10C",
"= c #FFE70F",
"- c #F7ECAC",
"; c white",
": c #fff000",
/* pixels */
"::::::::::::::::::############::::::::::::::::::::::::::::::",
"::::::::::::::::::############::::::::::::::::::::::::::::::",
"::::::::::::::::::############::::::::::::::::::::::::::::::",
":::::::::::::::###===------===###:::::::::::::::::::::::::::",
":::::::::::::::###===------===###:::::::::::::::::::::::::::",
":::::::::::::::###===------===###:::::::::::::::::::::::::::",
"::::::::::::###===---============XXX::::::::::::::::::::::::",
"::::::::::::###===---============XXX::::::::::::::::::::::::",
"::::::::::::###===---============XXX::::::::::::::::::::::::",
"::::::::::::###=========   ;;;===XXX::::::::::::::::::::::::",
"::::::::::::###=========   ;;;===XXX::::::::::::::::::::::::",
"::::::::::::###=========   ;;;===XXX::::::::::::::::::::::::",
"::::::@@@@@@@@@ooo======      ===XXX::::::::::::::::::::::::",
"::::::@@@@@@@@@ooo======      ===XXX::::::::::::::::::::::::",
"::::::@@@@@@@@@ooo======      ===XXX::::::::::::::::::::::::",
":::ooo&&&&&&&&&$$$XXX============XXX::::::::::::############",
":::ooo&&&&&&&&&$$$XXX============XXX::::::::::::############",
":::ooo&&&&&&&&&$$$XXX============XXX::::::::::::############",
"::::::XXXXXXXXXXXX===============XXX::::::######======***XXX",
"::::::XXXXXXXXXXXX===============XXX::::::######======***XXX",
"::::::XXXXXXXXXXXX===============XXX::::::######======***XXX",
"::::::::::::+++===============XXXXXXXXXXXX=========***%%%XXX",
"::::::::::::+++===============XXXXXXXXXXXX=========***%%%XXX",
"::::::::::::+++===============XXXXXXXXXXXX=========***%%%XXX",
"::::::::::::+++==================############======***%%%XXX",
"::::::::::::+++==================############======***%%%XXX",
"::::::::::::+++==================############======***%%%XXX",
"::::::::::::+++===========================***###***%%%%%%XXX",
"::::::::::::+++===========================***###***%%%%%%XXX",
"::::::::::::+++===========================***###***%%%%%%XXX",
"::::::::::::+++=====================******%%%XXX***%%%%%%XXX",
"::::::::::::+++=====================******%%%XXX***%%%%%%XXX",
"::::::::::::+++=====================******%%%XXX***%%%%%%XXX",
":::::::::::::::OOO===============***%%%%%%%%%XXX%%%%%%XXX:::",
":::::::::::::::OOO===============***%%%%%%%%%XXX%%%%%%XXX:::",
":::::::::::::::OOO===============***%%%%%%%%%XXX%%%%%%XXX:::",
":::::::::::::::OOO===============XXXXXXXXXXXX%%%%%%%%%XXX:::",
":::::::::::::::OOO===============XXXXXXXXXXXX%%%%%%%%%XXX:::",
":::::::::::::::OOO===============XXXXXXXXXXXX%%%%%%%%%XXX:::",
"::::::::::::::::::OOO************%%%%%%%%%%%%%%%%%%...::::::",
"::::::::::::::::::OOO************%%%%%%%%%%%%%%%%%%...::::::",
"::::::::::::::::::OOO************%%%%%%%%%%%%%%%%%%...::::::",
":::::::::::::::::::::OOO%%%%%%%%%%%%%%%%%%%%%......:::::::::",
":::::::::::::::::::::OOO%%%%%%%%%%%%%%%%%%%%%......:::::::::",
":::::::::::::::::::::OOO%%%%%%%%%%%%%%%%%%%%%......:::::::::",
"::::::::::::::::::::::::OOO..................:::::::::::::::",
"::::::::::::::::::::::::OOO..................:::::::::::::::",
"::::::::::::::::::::::::OOO..................:::::::::::::::",
"::::::::::::::::::OOOOOO:::::::::::::::...::::::::::::::::::",
"::::::::::::::::::OOOOOO:::::::::::::::...::::::::::::::::::",
"::::::::::::::::::OOOOOO:::::::::::::::...::::::::::::::::::",
":::::::::::::::::::::OOO::::::::::::::::::......::::::::::::",
":::::::::::::::::::::OOO::::::::::::::::::......::::::::::::",
":::::::::::::::::::::OOO::::::::::::::::::......::::::::::::",
"::::::::::::::::::::::::::::::::::::::::::...:::::::::::::::",
"::::::::::::::::::::::::::::::::::::::::::...:::::::::::::::",
"::::::::::::::::::::::::::::::::::::::::::...:::::::::::::::",
"::::::::::::::::::::::::::::::::::::::::::::::::::::::::::::",
"::::::::::::::::::::::::::::::::::::::::::::::::::::::::::::",
"::::::::::::::::::::::::::::::::::::::::::::::::::::::::::::"
};
