/* XPM */
static char *result[] = {
/* columns rows colors chars-per-pixel */
"64 64 55 1 ",
"  c #3B4047",
". c #3E4349",
"X c #41454E",
"o c #434951",
"O c #494E57",
"+ c #4B5156",
"@ c #4E545E",
"# c #505557",
"$ c #50555D",
"% c #54595D",
"& c #4F5660",
"* c #515561",
"= c #565C64",
"- c #595D66",
"; c #575E68",
": c #5B5F69",
"> c #5D6266",
", c #5D626A",
"< c #61666C",
"1 c #62686D",
"2 c #696E6D",
"3 c #6E726F",
"4 c #656E72",
"5 c #6A6F73",
"6 c #6C7375",
"7 c #6C7578",
"8 c #717675",
"9 c #737877",
"0 c #737778",
"q c #747A7B",
"w c #7A7D7A",
"e c #7C807E",
"r c #83867E",
"t c #87897F",
"y c #848783",
"u c #858984",
"i c #8A8D87",
"p c #898D89",
"a c #8E918B",
"s c #95968C",
"d c #95988D",
"f c #9A9B8F",
"g c #939691",
"h c #969992",
"j c #9B9C93",
"k c #9FA094",
"l c #9FA298",
"z c #A3A497",
"x c #A8A797",
"c c #A7A897",
"v c #A4A599",
"b c #A8A79B",
"n c #A7A89B",
"m c #A8A99B",
"M c #A9ACA0",
/* pixels */
"    .. .  .                          .                    .     ",
"  ..............   ...........    ............   .............  ",
"  azlllvllllvvl,&&Mbvvvvbvbvvz.  .bbMMMMnMmmMM4&&allvllvvlvlll. ",
"  snmmmmnnMnnnn1*&bmbbMbbbbbmz.  .zbvnvvnmmnnnq&@snMnnnnmmmmnv. ",
"  snnmmmmmmmnnm1**mmmmmmbbmmmb. ..vmbnnnmmmmnMq&@dmmmmnmmmmmnv  ",
"  smmmnnmmmmnnm1**mmmmmmbbbbbv.  .vbbbnnmmnnnnq&@sbbmmbbmmmmnv. ",
" .smmmmmmMmmmmM4**MmmmmmbmMmmb.  .vmmmmMMMmmnme&OhbmmmmmmmMmmc. ",
"  ,,111111111,1***111411111111.  .<1111111,4,1;&*<11114111,111  ",
"  $***@@&&&&&&&&*@*&&&*&*&&&&&    @&***&&&&&@&&&&&&&&&&&$$&&&&  ",
" .55555=&&1655555665551@**++$+    @++$@*&*&$@@@&&&&&@&&&>44665  ",
" .zxmmb<$&nmxmmbmxxmnbd@*qnnnl. ..zvvz7&&5777777777777;&,mmnnv. ",
" .zmmbb<&$mnmbmmmmmmmmd$*qnnnv.  .vvmm8&&4777777774777=&,Mmmmv. ",
" .vmmmm<&&mmmmmmnmmmmnd@*qmmnv.  .vnnn8&&7777777777777;&1mmmmv..",
" .vmnmn<$$mmmmmmnnmmmmd&&qmmnv.  .zbmm7&&4777777747777=&1mmxmz. ",
" .fdhds,&$ssddsssdddddu@*6ssaa.  .ssss5&&4444444444445-&,jfkjf. ",
"  =***&&&&@++@+++@+++++&*$@+@@    @+@+&&&&&@@@@@@@@&@@@@@=====  ",
"  @&**&&&@&&&$$&&&&@@@@@&&@@@@    @&&*@*&&&&&&&&&@&&&&&&&&&&&&  ",
"  199q9q9q9qqq7*&&;>=,==--=;>;   .7qeqqqeqqqqq<&&7eeeeqqqq7eeq  ",
"  rmmmnmmmmmmml,$&777777777747   .vnnnmmnnnnMne&&glnmmmnnnnmMl  ",
"  rbmmmnmmmmmmv,@>777777777777   .vmmnmmmmnMnnq&&kMnmmnnnnmmnl. ",
"  rbnmmmbmmmbbz>&=777777777777.  .vnbbmmmmmmbmq&&hnnnnnnnnnnnl..",
"  tbmmmnbbbmbbz:@,777777777777   .nnbbbmnnnnbbw&&kMlnnnnnnnnnn. ",
"  whddhdgssddda=&&444444445444    sddsddddhddh7&&phkkkhhkhkhdk. ",
"  O@&@@@@@@@@$@$@&&&&&&&**&**$    +@@@@@@@@@@@$&&&&&@&&&&&&&@@  ",
"  $*$****$&&$$$@&@$&$$@***&**$    @@&@*$&*&@@@@$$$$@&&&&&&*&&&  ",
" .yyuuy:**8888886667885$&>2636   .36664&@2666663656667,*,uuuuu. ",
" Xzbbbb<**bmmmmmmmmmxmk=$0bmbz.  .vmbbh$@fmmxbbmbbmmmxq*,mmmnv. ",
" .vbmbb<**bmmmmmmmmmbxk=*0mbmv.  .vmbvj@@fmmmmmmmmmmmmq&1mmmnv. ",
" .vmmmb<**bmmmmmmmmmmmk=*0mmmv. ..znmxj@@jbmmmmmmmmmmmq&1Mnnmz. ",
" .zmmmb1**bbmmmbmmmmnmj-*9mnmv.  .zncmh@@jnvmvnmnncnnnq*1mnnmn. ",
" .uiiip,**q888888888886*$>8q08.  .88835@&6888888888888,&=yuaau. ",
"  $***********%*%@%@$$$$*o.***    @&+ O@$$$@$$$@$$@$&&*&&&&&&$  ",
"  *$***********&*&*&*&OXo..*$$    @&+ o@+*&&&&&&&&&&&&&&&&&&&&  ",
" .yuyyyuyyyyyyy:&-gjjjwwh++jjd   .uiw %%+ppppp4&&ajjjjjjjjhjjh. ",
" .zbbbmmmmmmbbb1&<nnnnnnb+#nbvX  .zna wvvnnnnn9&&hnnnnnnMnMnnn. ",
" .zmmmmmmmmmmmM1*,nmnnmmm$#mbv   .zna enmmmmnn9*&hnMmmmmnnnnnl. ",
" .zbmmbmbbmbmmm1&,mmmmmbm##mbvX  .vms wxnmmmmn9&&jmmbmmmbmnnnv. ",
" .lbmmmbmmbmmmm1&1nmmxmmm##mmzX  Xvms rmmmmmmn9&&jmmmbmmnnnnnv. ",
"  2997989908978=&-6366689><362.  .999@88999999,&&7778887879997  ",
"  &&&&&&&***&&&@&&&%&%@&$*@$&&    @*@&$@&&&&&&&&&&&&@&&&&$&&&&  ",
"  =====$&&@O@+@@@@+@@@@&***$$@    +@@$@&&@@@+@@@@+@@@&&&*---==. ",
"  jjkkj<&@sssdsssssdsda**6hdss   .sdddw&&qsdsdsssssdsd7&,kjkjf. ",
" .zbbbx<&+nnbbmmnnnnbbj-*qbbbz.  .vbnmr*&rnnnnnnnnnbmmq*1mmmmz. ",
" .zbmbb<&+vnnnmmnnnnmmj=*wmbvvX  .vnmme$&ummnmmmnnmmmmq&1nmmmz. ",
" .xbmmb<&+vnmnnnmmmmmbj-*qbbmv.  .zmmme@&ubmmmmmnmmmmmq&1mmmmz..",
" .zbbmz<@@vnncnnnxmmmmj=*qbbbz.  .zbmvy@@ynmcnnnnnnnnnq*1vmmmz. ",
"  55556=&&$$$$@%$$$$$$%$*:5552.  .5655>@&&&&@&&&&*@&&&&&*45552. ",
"  $****$**&&$$@&&$************    @@*$&&&&&&&&&*&&&&&&&&*@&&&@  ",
"  *--==-=%%-=--$**-:--=------=    =&===;&==,&;&&&--->-=->=>===  ",
" .djjkjjkjkjjfk,$@ljjzzkjzkkzj.  .477777777777,&&akkkkkkkkklkj. ",
" .zmmmmmmmmmmmn,*@Mnmmmmmmbbmz.   777777777777,&@hnnmmmmvnmmml. ",
" Xzmmmmmmmmmmmm1*@mmmmmmmmmmmv.  .777777777777,&*hmmmmnmnnmmmn. ",
" .zmmmmmmnnnmmM,*+mnmmmmmmmmmv.   7e7777777777,&@hmnmmnmmmmmnn..",
" .jbmmmmmmmbmmm4*$Mbmvbvvnmvvz.   444777777777,&&hnnnnnnnnvvnl. ",
"  +@@@@+@@@@@@@&*@@@@@@@@@@@@@    @@@@@@@@@@$@$&&@+$@@@@@@@@@&  ",
"  $&&&@**&&&&&&&**&&&&&***&&*&    &@&&&&&&&&&&&$&&&&&&&@$&&&&&  ",
"  11114*&&1,11,111,1,1-*$-111,    ,111>@&,,,1,,1,<111,-&&,1,1,. ",
" Xxxxbb1*@mmbnbbmmbmbb8**qmmnc.  .ccnng&&hmnmMccxnnmmn8&4mxncz. ",
" .bmbmb1*@mmmnbnmnmmvm8**0mmnn.  .lMMnk&&jmmmmmMmmmmmm9*,Mmmmz. ",
" .zmmmb1*@mmmmmmmmmnmm0**qmnnv.  .lMnlh&&jnmmmmmmmmmmm9&1mmmmz. ",
" .zmnmn1&@nnmnnnvmmnbb0**0bbcc.  .vMnnh@&jnmmmnnmnnmnn9*1Mmnmz..",
" .zzlvv,&@Mnvvvvzzvvzz8$*5uutr.  .rttte@@glvlvvvvzvvvv1&-kvvvl. ",
"  ....    ......X...X.                   .............   .....  ",
"                                            ..                  "
};
