/* XPM */
static char *d1e390e42be54e9b9795ec5f934eac1cUpIceF8kjUbuDArl[] = {
/* columns rows colors chars-per-pixel */
"50 50 6 1 ",
"  c None",
". c black",
"X c #464646",
"o c #7B56C7",
"O c gray52",
"+ c gray71",
/* pixels */
"                     .....                        ",
"                    .ooooo.                       ",
"                   .ooooooo.                      ",
"                  .ooo..ooo.X                     ",
"                 .ooo.++.ooo.X                    ",
"                 .oo.+++.ooo.+X                   ",
"                .ooo.+++.ooo.++X                  ",
"                .oo.++++.ooo.+++X                 ",
"               .ooo.O+++.ooo.+O++X                ",
"               .oo.++O++.ooo.+OO++X               ",
"               .oo.+++++.ooo.++O+++X              ",
"               .oo.++O++.ooo.++OO+++X             ",
"              .oo.++++++.ooo.+++O+++X             ",
"              .oo.++++++.ooo.+++OO+++X            ",
"              .oo.++++++.ooo.++++O+++X            ",
"              .oo.+++O++.ooo.++++O+++X            ",
"              .oo.++++O+.ooo.+++++O+++X           ",
"              .oo.+++++O.ooo.+++++O+++X           ",
"              .oo.+O++++.oo.++OO++O++++X          ",
"              .oo.++O++.ooo.++++++O++++X          ",
"              .oo.+O+++.ooo.++++++O+++++X         ",
"              .oo.O++++.oo.+++++++++++++X         ",
"              .oo.++++.ooo.++++++++++++++X        ",
"              .oo.++++.ooo.O++++O++++++O+X        ",
"              .oo.+++.ooo.+O++++OOO+++++O+X       ",
"               .o.++.oooo.+OO++++++OO+++++X       ",
"               .oo..oooo.++++++++++++O+++++X      ",
"              .oooooooo.+++++++++++++OO++++X      ",
"              .oooooo..+++++++++O+++++O++++X      ",
"              .oo....  XXX+++++++O++++O+++++X     ",
"             .oo.         XXX+++++++++++++++X     ",
"             .oo.            XXX++++++++++++X     ",
"             .o.                XXXXX+++++XXX     ",
"            .oo.                     XXXXX        ",
"            .o.                                   ",
"           .oo.                                   ",
"           .oo.                                   ",
"          .oo.                                    ",
"          .oo.                                    ",
"          .o.                                     ",
"        ..oo.                                     ",
"        .oo.                                      ",
"       .ooo.                                      ",
"       .oo.                                       ",
"      .ooo.                                       ",
"      .oo.                                        ",
"     .ooo.                                        ",
"     .o..                                         ",
"    .oo.                                          ",
"    ...                                           "
};
