/* XPM */
static char *e1c39893b6274b45c74577113f8fc75dNlgUoGcPZQpo5lOY[] = {
/* columns rows colors chars-per-pixel */
"45 45 3 1 ",
"  c None",
". c black",
"X c #464646",
/* pixels */
"                     ............            ",
"                     ............            ",
"                     ............            ",
"                  ...XXXXXXXXXXXX...         ",
"                  ...XXXXXXXXXXXX...         ",
"                  ...XXXXXXXXXXXX...         ",
"               ...XXXXXXXXXXXXXXXXXX...      ",
"               ...XXXXXXXXXXXXXXXXXX...      ",
"               ...XXXXXXXXXXXXXXXXXX...      ",
"               ...XXXXXXXXXXXXXXXXXX.........",
"               ...XXXXXXXXXXXXXXXXXX.........",
"               ...XXXXXXXXXXXXXXXXXX.........",
"               ...XXXXXXXXXXXXXXXXXXXXXXXX...",
"               ...XXXXXXXXXXXXXXXXXXXXXXXX...",
"               ...XXXXXXXXXXXXXXXXXXXXXXXX...",
"               ......XXXXXXXXXXXXXXXXXX......",
"               ......XXXXXXXXXXXXXXXXXX......",
"               ......XXXXXXXXXXXXXXXXXX......",
"......            ......XXXXXXXXX.........   ",
"......            ......XXXXXXXXX.........   ",
"......            ......XXXXXXXXX.........   ",
"...XXX......         ...XXXXXXXXX...         ",
"...XXX......         ...XXXXXXXXX...         ",
"...XXX......         ...XXXXXXXXX...         ",
"...XXXXXXXXX.........XXXXXXXXXXXX...         ",
"...XXXXXXXXX.........XXXXXXXXXXXX...         ",
"...XXXXXXXXX.........XXXXXXXXXXXX...         ",
"...XXXXXXXXXXXXXXXXXXXXXXXXXXXXXXXXX...      ",
"...XXXXXXXXXXXXXXXXXXXXXXXXXXXXXXXXX...      ",
"...XXXXXXXXXXXXXXXXXXXXXXXXXXXXXXXXX...      ",
"...XXXXXXXXXXXXXXXXXXXXXXXXXXXXXXXXX...      ",
"...XXXXXXXXXXXXXXXXXXXXXXXXXXXXXXXXX...      ",
"...XXXXXXXXXXXXXXXXXXXXXXXXXXXXXXXXX...      ",
"   ...XXXXXXXXXXXXXXXXXXXXXXXXXXXXXX...      ",
"   ...XXXXXXXXXXXXXXXXXXXXXXXXXXXXXX...      ",
"   ...XXXXXXXXXXXXXXXXXXXXXXXXXXXXXX...      ",
"   ......XXXXXXXXXXXXXXXXXXXXXXXX...         ",
"   ......XXXXXXXXXXXXXXXXXXXXXXXX...         ",
"   ......XXXXXXXXXXXXXXXXXXXXXXXX...         ",
"      ......XXXXXXXXXXXXXXX......            ",
"      ......XXXXXXXXXXXXXXX......            ",
"      ......XXXXXXXXXXXXXXX......            ",
"            ..................               ",
"            ..................               ",
"            ..................               "
};
