/* XPM */
static char *_61a0a536d994e23abc990bce5f2c2d932BulrE9xbv0Pj1M[] = {
/* columns rows colors chars-per-pixel */
"100 100 2 1 ",
"  c #464646",
". c #B4B4B4",
/* pixels */
"                                                                    ...............                 ",
"                                                                   ................                 ",
"                                                                 .................                  ",
"                                                               ..................                   ",
"                                                              ..................                    ",
"                                                            ..................                      ",
".......                                                    ..................                       ",
"............                                             ...................                        ",
".................                                      ....................                         ",
"....................                                 .....................                          ",
"......................                             .....................                            ",
"......................                          ......................                              ",
".......................                        ......................                               ",
".......................                        ....................                                 ",
".......................                        ...................                                  ",
"     ..................                        .................                                    ",
"          .............                        ...............                                      ",
"             ..........                        .............                                        ",
"              ..........                       ...........                                          ",
"              ...........                      ........                                             ",
"               ..........                                                                           ",
"               ..........                                                                           ",
"               ...........                                                           ...............",
"               ...........                                                     .....................",
"               ...........                                                    ......................",
"                ..........                                                   .......................",
"                 .........                                                  ........................",
"                 ..........                                                .........................",
"                 ..........                                                .........................",
"                  .........                                               ..........................",
"                  .........                                              .................... ......",
"                  ..........                                             ..............          ...",
"                  ..........                                            .............             ..",
"                  ..........                                           .............                ",
"                   .........                                           ............                 ",
"                   ..........                                         .............                 ",
"                   ..........                                        .............                  ",
"                   ..........                                        ............                   ",
"                    .........                                      ..............                   ",
"                    .........                                     ..............                    ",
"                    ..........                                   ..............                     ",
"                    ..........                                   ..............                     ",
"                     ..........                                 ..............                      ",
"                     ..........                               ...............                       ",
"                     ..........                             .................                       ",
"                     ..........                            .................                        ",
"                     ...........                           ...............                          ",
"                      ...........                        ................                           ",
"                      ............                      .................                           ",
"                       ............                   ..................                            ",
"                       .............                 ..................                             ",
"                       ..............              ..................                               ",
"                       ...............            .................                                 ",
"                        .................       ...................                                 ",
"                        ..................     ...................                                  ",
"                          ......................................                                    ",
"                           ....................................                                     ",
"                            ..................................                                      ",
"                             ...............................                                        ",
"                              ............................                                          ",
"                               ..........................                                           ",
"                                  .....................                                             ",
"                                   ...................                                              ",
"                                       .............                                                ",
"                                                                                                    ",
"                                                                                                    ",
"                                                                                                    ",
"                                                                                                    ",
"                                                                                         ...........",
"                                                                                     ...............",
"                                                                                  ..................",
"                                                                                ....................",
"                                                                             .......................",
"........                                                                     .......................",
"........                                                                     .......................",
"........                                                                     .......................",
".........                                                                    ...................    ",
"..........                                                                   ...............        ",
"...........                                                                  ............           ",
"............                                                                 ..........             ",
"..............                                                                                      ",
"...............                                                                                     ",
".................                                                                                   ",
" ..................                                                                                 ",
" ...................                                                                                ",
"   ..................                                                                               ",
"    ..................                                                                              ",
"     ..................                                                                             ",
"       .................                                                                            ",
"        ..................                                                                          ",
"          .................                                                                         ",
"            ................                                                                        ",
"             ...............                                                                        ",
"              ...............                                                                       ",
"               ...............                                                                      ",
"                ...............                                                                     ",
"                 ..............                                                                     ",
"                  .............                                                                     ",
"                   ............                                                                     ",
"                    ...........                                                                     "
};
