/* XPM */
static char *_b10e2cec5d3458b90c769e9d0b8aa4dHTn9Jexq5zAE1OW6[] = {
/* columns rows colors chars-per-pixel */
"50 50 58 1 ",
"  c None",
". c black",
"X c #000101",
"o c #010200",
"O c #020303",
"+ c #030401",
"@ c #0A0E03",
"# c #030708",
"$ c #050809",
"% c #0F1504",
"& c #0F1719",
"* c #121B1E",
"= c #131C1F",
"- c #223009",
"; c #25373C",
": c #494022",
"> c #514726",
", c #1F4650",
"< c #24515D",
"1 c #37535B",
"2 c #38545C",
"3 c #3A575F",
"4 c #3F5F68",
"5 c #40616A",
"6 c #8AC527",
"7 c #97D729",
"8 c #97D829",
"9 c #98D82B",
"0 c #99DA2A",
"q c #9ADA2C",
"w c #9CDE2C",
"e c #9EE12D",
"r c #A0E32D",
"t c #A2E62E",
"y c #948345",
"u c #998747",
"i c #B6A155",
"p c #FFE177",
"a c #337283",
"s c #4E7580",
"d c #55808C",
"f c #4395AB",
"g c #6DA4B4",
"h c #74AEBF",
"j c #4EAEC8",
"k c #50B3CD",
"l c #7CBACC",
"z c #5ED2F1",
"x c #60D6F5",
"c c #60D7F6",
"v c #61D9F9",
"b c #62DBFB",
"n c #63DCFB",
"m c #80C0D2",
"M c #8ACFE3",
"N c #8ED6EA",
"B c #97E3F9",
"V c #99E6FC",
/* pixels */
"                                                  ",
"                                                  ",
"                                                  ",
"                                                  ",
"                                                  ",
"                                                  ",
"                                                  ",
"                                                  ",
"                                                  ",
"                                                  ",
"                                                  ",
"     ..                         ..                ",
"    ....                       ...                ",
".....p.......                  .p..  .............",
"tttt.pp.ttt......             ..p......ttttttttttt",
"tttt.pp.ttttttt.................pi.ttttttttttttttt",
"tttt.pp.ttttttttt...............pp.ttttttttttttttt",
"tttt....ttttttt...VVVVVVVV..ttw....ttttttttttttttt",
"ttttt..ttttttt..NVVVVVVVV..ttttt..tttttttt..+ttttt",
"ttttt..ttttttt.VVVVVVVVV2.tttttt..ttttttt....ttt8t",
"ttttt.ttttttt..VVVVVVVVV..tttttt.tttttttt.>p.ttt7t",
"ttttt.ttttttt.1V$VVVVVVV..ttttttttttttttt.pp.tt77t",
"ttttttttt.ttt.5V..VVVVVV;.tttttttt..ttttt.pp..777t",
"tttttttt...tt..Vd.VVVVVVV..tttttt...ttttt.pp.@777t",
"ttttttt..p.tt..VV.lVVVVVV*.tttttt.p..tttt....7777t",
"ttttttt.pp.ttt.4V..VVVVVVV&..tttt.pp.ttttt..77777t",
"ttttttt.pp..tt..VV.VVVVVVVVV..ttt.pp.ttttt..77777t",
"ttttttt.pp..ttt..VVVVVVVVVVVV..6t.pp.ttttt..77777t",
"ttttttt..p.tttt%.VVV=VVVVVVVVV..t....tttt7.777777t",
"tttttttt...ttttt..VV..VVVVV..VVV.t..tttt777777777t",
"ttttttttt.ttttttt.sV2.VVVVVV..VVV...ttr7777777777t",
"ttttttttt.ttttttt..VV.VVVVVVV..MVV..t777777777777t",
"tttttttttttttttttt.VV..VVVVVVV...VV..777777...777t",
"tttttttttttttttttt..V..VVVVVVVVB..nb..7777t.p.777t",
"ttttt..9tttttttttt..V..VVVVVVVVVV..bb.-777..p.777t",
"ttttt...tttttttttt..VVVVVVV..VVbb,.bb..777.:p..77t",
"tttt..p.tttttttttt.gVVVVVVVV..bbbb..bb..77.pp..77t",
"tttt.up.tttttttttt.VVVVVVVVbb..bbbbbbb..77.yp..77t",
"tttt.pp..tttttttt..VVVVVVbbbbb..bbbbbbb.77....777t",
"tttt.pp..tttttttt.hVmVbbbbbbbbz.bbbb<bb.7777.7777t",
"tttt....tttttttt..Vb.jbbbbbbbbb.bbbb.bb.7777.7777t",
"t77et..qtttttt97.bb..bbbbbbbbbb.abbb.bb.7777.7777t",
"t7777t.77777777..bb.fbbbbbbbbbb.bbb..bb.777777777t",
"t77777.7777777..bb..bbbbbbbbbbx.bbb..b..777777777t",
"t777777777777..bb..bbbbbbbbbbb..bbb.bb..777777777t",
"t777777777tt..bb..bbbbbbbbbbb..bbb#.bb.7777777777t",
"t777777777..bbbb.bbbbbbbbbbbbkbbbb..b..7777777777t",
"t7777777...bbbbbbbbbbbbbbbbbbbbbbbbbb..7777777777t",
"t77777...bbbbbbbbbbbbbbbbbbbbbbbbbbbx.77777777777t",
"ttttt..bbbbbbbbbbbbbbbbbbbbbbbbbbbbbb.tttttttttttt"
};
